:SAMPLES-PER-SECOND 30
:FULLY-SPECIFIED
:DEGREES
432
root  -45.9896 33.9652 14.4265 -175.517 59.8985 177.329
RightUpLeg  -22.5002 -25.8176 14.3604
RightLeg  17.9072 -14.7161 -3.67998
RightFoot  -7.07301 0.0924093 2.12978
RightToes  3.23214 0.00717624 0.030793
Spine  0.710403 0.985221 4.91108
Spine1  1.90914 2.36513 9.91301
HEad  -90.0678 5.34088 6.17999
LeftShoulder1  -1.94126e-019 -3.10601e-018 -2.51263e-017
LeftArm  -3.65352 -4.21893 -68.7904
LeftForeArm  29.8469 -40.9825 -7.80683
LeftHand  -0.47182 -1.63192 7.97413
RightShoulder  -4.96962e-017 0 -2.36833e-017
RightArm  -17.0795 -9.5444 66.106
RightForeArm  49.7434 22.1729 2.20649
RightHand  -0.348566 -1.32585 -10.1733
LeftUpLeg  -22.4557 29.0056 -5.98705
LeftLeg  45.2511 19.771 16.6922
LeftFoot  -13.4981 -0.761008 -6.26241
LeftToes  -1.92745 2.40056e-006 -7.68412e-008
433
root  -46.3637 33.7432 14.9306 -174.804 58.3567 178.164
RightUpLeg  -25.2354 -28.0337 16.0854
RightLeg  20.5007 -13.7454 -4.10511
RightFoot  -8.27437 0.123143 2.33079
RightToes  6.01405 0.0119542 0.057585
Spine  0.669237 0.613015 5.14364
Spine1  1.84651 1.62018 10.3841
HEad  -86.6666 6.21241 6.79723
LeftShoulder1  -1.94126e-019 -3.10601e-018 -2.51263e-017
LeftArm  -3.5619 -7.11997 -68.1017
LeftForeArm  29.9956 -43.1621 -8.49926
LeftHand  -0.482478 -1.76944 8.00422
RightShoulder  -4.96962e-017 0 -2.36833e-017
RightArm  -19.3781 -8.51784 65.0115
RightForeArm  47.8021 23.846 2.60819
RightHand  -0.346083 -1.48734 -10.3532
LeftUpLeg  -21.7522 28.695 -6.1528
LeftLeg  45.0502 18.3859 15.5165
LeftFoot  -14.0919 -0.764231 -6.01568
LeftToes  -4.93877 2.40056e-006 -7.68412e-008
434
root  -46.7583 33.4529 15.4178 -174.873 56.5499 178.345
RightUpLeg  -28.5928 -29.7678 17.3053
RightLeg  24.6809 -13.3676 -5.07083
RightFoot  -9.86392 0.181926 2.73519
RightToes  8.73896 0.0150396 0.0840226
Spine  0.614148 0.0629102 5.29947
Spine1  1.70183 0.504804 10.7136
HEad  -81.9148 6.84484 7.25076
LeftShoulder1  -1.94126e-019 -3.10601e-018 -2.51263e-017
LeftArm  -3.83121 -9.70634 -68.0398
LeftForeArm  30.5422 -44.6945 -8.98609
LeftHand  -0.491076 -1.80036 8.11095
RightShoulder  -4.96962e-017 0 -2.36833e-017
RightArm  -21.4824 -7.77988 64.142
RightForeArm  46.4315 25.8811 3.07602
RightHand  -0.341006 -1.69777 -10.565
LeftUpLeg  -19.9794 27.0407 -6.16568
LeftLeg  42.5678 17.1002 13.3343
LeftFoot  -12.6448 -0.5485 -4.78588
LeftToes  -8.50682 2.40056e-006 -7.68412e-008
435
root  -47.186 33.0629 15.8722 -176.148 54.9733 177.231
RightUpLeg  -33.0811 -31.8375 17.7935
RightLeg  31.1178 -11.966 -6.149
RightFoot  -11.735 0.248144 3.03562
RightToes  9.73752 0.016304 0.0937471
Spine  0.492357 -0.447155 5.18773
Spine1  1.36607 -0.546919 10.5499
HEad  -76.6949 7.09862 7.72796
LeftShoulder1  -1.94126e-019 -3.10601e-018 -2.51263e-017
LeftArm  -4.0297 -11.844 -68.5482
LeftForeArm  31.462 -45.4355 -9.18163
LeftHand  -0.531225 -1.97214 8.56718
RightShoulder  -4.96962e-017 0 -2.36833e-017
RightArm  -22.5967 -7.54102 63.458
RightForeArm  45.5669 27.9009 3.53834
RightHand  -0.321724 -2.08071 -11.0614
LeftUpLeg  -17.8333 24.9814 -6.55591
LeftLeg  38.0811 16.3629 10.9121
LeftFoot  -15.7692 -0.770287 -5.3963
LeftToes  -10.7189 2.40056e-006 -7.68412e-008
436
root  -47.632 32.6391 16.3791 -178.399 53.2623 175.763
RightUpLeg  -37.9782 -35.0884 17.9239
RightLeg  38.9655 -9.37956 -6.59593
RightFoot  -11.6045 0.201559 2.59336
RightToes  7.36059 0.0137984 0.070629
Spine  0.78457 -0.912936 4.9749
Spine1  1.8312 -1.53576 10.1321
HEad  -72.6761 6.94 8.22888
LeftShoulder1  -1.94126e-019 -3.10601e-018 -2.51263e-017
LeftArm  -4.23853 -14.4856 -69.8885
LeftForeArm  32.7027 -44.8997 -8.89321
LeftHand  -0.564315 -1.9338 9.13315
RightShoulder  -4.96962e-017 0 -2.36833e-017
RightArm  -23.562 -6.90444 63.0086
RightForeArm  45.5082 28.5612 3.68169
RightHand  -0.335511 -2.05207 -11.4537
LeftUpLeg  -19.9375 25.0024 -7.36478
LeftLeg  41.8869 14.7938 11.3568
LeftFoot  -17.6784 -0.913131 -5.7053
LeftToes  -6.14128 2.40056e-006 -7.68412e-008
437
root  -48.079 32.3872 16.8991 179.585 50.7851 174.724
RightUpLeg  -43.4803 -40.1397 18.323
RightLeg  46.8726 -5.39497 -5.08092
RightFoot  -7.90263 0.0467363 1.26621
RightToes  2.22914 0.00513536 0.0211946
Spine  1.25389 -1.17536 4.81936
Spine1  2.6843 -2.12171 9.78877
HEad  -70.1451 5.16529 8.58615
LeftShoulder1  -1.94126e-019 -3.10601e-018 -2.51263e-017
LeftArm  -3.71332 -17.1464 -73.1173
LeftForeArm  34.446 -43.4958 -8.28688
LeftHand  -0.632979 -2.15913 9.93029
RightShoulder  -4.96962e-017 0 -2.36833e-017
RightArm  -26.303 -7.38765 62.7815
RightForeArm  46.599 28.011 3.50941
RightHand  -0.359841 -2.02093 -12.1965
LeftUpLeg  -21.8359 26.3174 -7.76908
LeftLeg  44.9296 12.0402 10.3586
LeftFoot  -17.2666 -0.734447 -4.67292
LeftToes  -2.58931 2.40056e-006 -7.68412e-008
438
root  -48.4797 32.2413 17.3082 177.444 49.6636 172.893
RightUpLeg  -47.8804 -43.6392 16.9951
RightLeg  54.0076 -0.255277 -0.37051
RightFoot  -2.00206 -0.00632859 0.209624
RightToes  -13.2102 -0.0469278 -0.120117
Spine  1.46005 -0.70773 4.35914
Spine1  3.0604 -1.23294 8.90456
HEad  -68.0084 2.29367 9.74154
LeftShoulder1  -1.94126e-019 -3.10601e-018 -2.51263e-017
LeftArm  -0.865573 -18.0245 -76.7918
LeftForeArm  34.8845 -43.0904 -8.118
LeftHand  -0.668106 -2.25739 10.3412
RightShoulder  -4.96962e-017 0 -2.36833e-017
RightArm  -28.2987 -9.59224 62.6704
RightForeArm  46.3405 26.2275 3.14913
RightHand  -0.35478 -2.34279 -13.2566
LeftUpLeg  -21.833 28.9576 -8.8353
LeftLeg  44.2107 9.51925 8.04041
LeftFoot  -17.4429 -0.5833 -3.63945
LeftToes  -3.94144 2.40056e-006 -7.68412e-008
439
root  -48.7905 32.1538 17.7477 176.084 49.8055 171.549
RightUpLeg  -49.6751 -44.6394 14.4816
RightLeg  58.5768 4.00769 5.59641
RightFoot  3.25555 -0.00130493 0.532208
RightToes  -37.15 -0.196126 -0.298463
Spine  1.654 -0.0888766 4.06015
Spine1  3.46906 0.00315623 8.26351
HEad  -65.783 0.531085 10.5761
LeftShoulder1  -1.94126e-019 -3.10601e-018 -2.51263e-017
LeftArm  2.10204 -16.7212 -79.4526
LeftForeArm  35.8654 -44.739 -8.60538
LeftHand  -0.631973 -2.48847 9.5232
RightShoulder  -4.96962e-017 0 -2.36833e-017
RightArm  -28.9089 -10.9997 62.9688
RightForeArm  46.2628 22.805 2.47688
RightHand  -0.322168 -2.78292 -13.9847
LeftUpLeg  -22.7868 29.0981 -9.73193
LeftLeg  44.7536 9.54647 8.21675
LeftFoot  -16.7655 -0.545381 -3.53822
LeftToes  -4.5175 2.40056e-006 -7.68412e-008
440
root  -48.9892 32.1979 18.2828 175.444 50.5629 170.919
RightUpLeg  -48.9672 -43.5133 11.1063
RightLeg  61.2071 3.83474 5.90254
RightFoot  0.658159 0.00128057 0.212482
RightToes  -36.3068 -0.189672 -0.293323
Spine  1.78202 0.369098 4.07042
Spine1  3.72858 0.896449 8.24551
HEad  -64.1721 0.00537483 10.6275
LeftShoulder1  -1.94126e-019 -3.10601e-018 -2.51263e-017
LeftArm  4.21161 -12.9339 -81.3337
LeftForeArm  38.8676 -47.0218 -9.21647
LeftHand  -0.660395 -3.87933 8.533
RightShoulder  -4.96962e-017 0 -2.36833e-017
RightArm  -27.98 -11.7198 63.3091
RightForeArm  46.3833 18.6281 1.69469
RightHand  -0.317897 -2.73078 -13.5255
LeftUpLeg  -23.6081 29.0169 -9.93501
LeftLeg  44.6908 10.204 8.74988
LeftFoot  -15.3857 -0.491759 -3.47781
LeftToes  -5.42869 2.40056e-006 -7.68412e-008
441
root  -49.1211 32.3702 18.8637 175.141 51.9214 170.252
RightUpLeg  -46.3848 -40.4363 6.54098
RightLeg  62.0372 0.671498 0.98575
RightFoot  -2.34672 -0.00907081 0.110567
RightToes  -32.2294 -0.15957 -0.267158
Spine  1.75142 0.743694 4.00002
Spine1  3.64432 1.61932 8.11178
HEad  -63.9254 0.483334 10.7399
LeftShoulder1  -1.94126e-019 -3.10601e-018 -2.51263e-017
LeftArm  6.32405 -7.32798 -81.9836
LeftForeArm  41.8282 -49.4494 -9.94924
LeftHand  -0.69477 -5.01957 8.0431
RightShoulder  -4.96962e-017 0 -2.36833e-017
RightArm  -29.1578 -12.1838 64.1332
RightForeArm  51.2907 13.7847 1.35258
RightHand  -0.341187 -2.00803 -11.5058
LeftUpLeg  -24.1161 29.6758 -10.0828
LeftLeg  43.3111 10.8659 8.86586
LeftFoot  -13.7703 -0.412198 -3.25108
LeftToes  -6.23601 2.40056e-006 -7.68412e-008
442
root  -49.2184 32.6238 19.4756 175.356 52.8316 169.799
RightUpLeg  -42.7534 -36.926 1.50871
RightLeg  61.674 -1.79345 -2.96655
RightFoot  -4.94289 -0.00322941 0.495568
RightToes  -25.8851 -0.116636 -0.222374
Spine  1.59432 0.644233 3.89788
Spine1  3.28362 1.39678 7.96405
HEad  -64.8665 2.08597 10.9031
LeftShoulder1  -1.94126e-019 -3.10601e-018 -2.51263e-017
LeftArm  6.02903 -0.629952 -82.4024
LeftForeArm  45.2215 -50.616 -10.1893
LeftHand  -0.777154 -6.34824 8.00969
RightShoulder  -4.96962e-017 0 -2.36833e-017
RightArm  -33.7096 -12.7395 65.2228
RightForeArm  61.6313 9.81643 1.5255
RightHand  -0.346369 -1.34669 -9.83893
LeftUpLeg  -24.5941 29.4213 -10.1722
LeftLeg  41.3009 12.0229 9.11303
LeftFoot  -11.5381 -0.31235 -2.92934
LeftToes  -10.0543 2.40056e-006 -7.68412e-008
443
root  -49.2419 32.8999 20.1384 176.241 52.945 169.841
RightUpLeg  -38.4447 -33.4079 -3.20889
RightLeg  60.0363 -3.84267 -5.83785
RightFoot  -7.10033 0.0318431 1.10119
RightToes  -21.8148 -0.0918048 -0.191251
Spine  1.27466 0.240049 3.81796
Spine1  2.59146 0.555613 7.92436
HEad  -66.8883 3.67659 11.2323
LeftShoulder1  -1.94126e-019 -3.10601e-018 -2.51263e-017
LeftArm  2.75279 6.17152 -83.6841
LeftForeArm  45.4135 -48.8662 -9.47122
LeftHand  -0.799352 -6.97041 7.84346
RightShoulder  -4.96962e-017 0 -2.36833e-017
RightArm  -36.5604 -14.4401 66.478
RightForeArm  68.3108 7.55021 1.26609
RightHand  -0.344717 -1.18937 -9.44106
LeftUpLeg  -25.1101 28.9564 -9.97184
LeftLeg  39.007 12.8049 8.92047
LeftFoot  -9.61885 -0.224899 -2.51094
LeftToes  -15.6385 2.40056e-006 -7.68412e-008
444
root  -49.1813 33.1371 20.8792 177.592 52.6622 170.405
RightUpLeg  -33.4284 -29.6018 -7.16939
RightLeg  57.0813 -5.21479 -7.04834
RightFoot  -8.14912 0.0648072 1.50727
RightToes  -19.9003 -0.0809036 -0.17602
Spine  0.894102 -0.152931 3.78396
Spine1  1.77252 -0.269554 7.99159
HEad  -69.4572 4.59315 11.8228
LeftShoulder1  -1.94126e-019 -3.10601e-018 -2.51263e-017
LeftArm  -1.76097 11.996 -85.4143
LeftForeArm  40.788 -43.7066 -7.9444
LeftHand  -0.806617 -5.88006 8.62008
RightShoulder  -4.96962e-017 0 -2.36833e-017
RightArm  -37.5516 -17.7893 67.8233
RightForeArm  68.4992 7.63079 1.28017
RightHand  -0.335442 -1.52255 -9.93662
LeftUpLeg  -25.711 28.9113 -9.36464
LeftLeg  36.8064 12.8619 8.25864
LeftFoot  -8.29128 -0.163654 -2.09602
LeftToes  -21.3497 2.40056e-006 -7.68412e-008
445
root  -49.0381 33.302 21.6994 179.034 52.4894 171.289
RightUpLeg  -27.8922 -25.3094 -10.0326
RightLeg  52.7502 -6.36655 -7.33971
RightFoot  -9.12177 0.0975457 1.82517
RightToes  -18.6149 -0.0738729 -0.165594
Spine  0.602556 -0.401928 3.77344
Spine1  1.1283 -0.816639 8.09986
HEad  -72.4428 5.17932 12.2399
LeftShoulder1  -1.94126e-019 -3.10601e-018 -2.51263e-017
LeftArm  -7.05454 16.1938 -86.8952
LeftForeArm  33.6854 -35.8807 -6.09285
LeftHand  -0.714819 -4.04781 9.05769
RightShoulder  -4.96962e-017 0 -2.36833e-017
RightArm  -37.6546 -21.9271 69.2731
RightForeArm  64.2519 9.23486 1.49074
RightHand  -0.362563 -1.25098 -10.0784
LeftUpLeg  -26.5724 29.0103 -8.33532
LeftLeg  35.497 12.6695 7.74315
LeftFoot  -7.45908 -0.128743 -1.8133
LeftToes  -25.4373 2.40056e-006 -7.68412e-008
446
root  -48.7759 33.3577 22.6134 -179.538 52.4708 172.789
RightUpLeg  -21.8144 -20.0275 -11.4244
RightLeg  47.4805 -7.82665 -7.4755
RightFoot  -10.6654 0.159395 2.31543
RightToes  -17.0905 -0.0658404 -0.153027
Spine  0.558692 -0.493254 3.76949
Spine1  0.982057 -1.06797 8.22508
HEad  -75.9053 5.54478 12.4801
LeftShoulder1  -1.94126e-019 -3.10601e-018 -2.51263e-017
LeftArm  -12.9873 18.6773 -87.4099
LeftForeArm  29.1117 -26.6389 -4.39287
LeftHand  -0.590832 -2.42998 8.98109
RightShoulder  -4.96962e-017 0 -2.36833e-017
RightArm  -37.4967 -25.8076 71.1026
RightForeArm  58.5441 11.1155 1.52828
RightHand  -0.368299 -1.11017 -9.91776
LeftUpLeg  -27.4701 28.7262 -6.32188
LeftLeg  35.4649 12.7717 7.79422
LeftFoot  -5.74264 -0.0773683 -1.38091
LeftToes  -28.3001 2.40056e-006 -7.68412e-008
